<svg width="1200" height="984" viewBox="0 0 1200 984" version="1.1" xmlns="http://www.w3.org/2000/svg" xmlns:xlink="http://www.w3.org/1999/xlink">
<g id="Canvas" fill="none">
<g id="Hello Icon">
<g id="Group" opacity="0.7">
<g id="Vector" opacity="0.7">
<path d="M 35.824 7.16681L 35.824 -8.02619e-06L -6.42268e-06 -8.02619e-06L -6.42268e-06 33.1317C -6.42268e-06 34.9836 0.735874 36.7597 2.04574 38.0692C 3.3556 39.3787 5.13215 40.1144 6.98458 40.1144L 28.8394 40.1144C 30.6918 40.1144 32.4684 39.3787 33.7783 38.0692C 35.0881 36.7597 35.824 34.9836 35.824 33.1317L 35.824 25.7742C 38.2948 25.7742 40.6644 24.793 42.4115 23.0463C 44.1586 21.2997 45.1401 18.9307 45.1401 16.4606C 45.1401 13.9905 44.1586 11.6216 42.4115 9.87497C 40.6644 8.12834 38.2948 7.14709 35.824 7.14709L 35.824 7.16681ZM 35.824 22.2105L 35.824 10.7436C 36.593 10.7176 37.3594 10.8465 38.0776 11.1228C 38.7957 11.399 39.4509 11.8169 40.0042 12.3516C 40.5574 12.8862 40.9974 13.5267 41.2979 14.2349C 41.5983 14.9431 41.7532 15.7045 41.7532 16.4738C 41.7532 17.2431 41.5983 18.0045 41.2979 18.7127C 40.9974 19.4209 40.5574 20.0613 40.0042 20.596C 39.4509 21.1307 38.7957 21.5486 38.0776 21.8248C 37.3594 22.1011 36.593 22.23 35.824 22.204L 35.824 22.2105Z" transform="translate(167.001 360.25) scale(-2 2)" fill="url(#paint0_linear)"/>
</g>
</g>
<g id="Vector_2">
<path d="M 8.50384 -4.01309e-06C 6.82194 -4.01309e-06 5.17781 0.498609 3.77936 1.43277C 2.38091 2.36693 1.29097 3.69468 0.647335 5.24814C 0.00369943 6.80159 -0.164737 8.51097 0.163386 10.1601C 0.491508 11.8092 1.30144 13.3241 2.49073 14.513C 3.68001 15.702 5.19524 16.5117 6.84482 16.8397C 8.49441 17.1678 10.2043 16.9994 11.7581 16.3559C 13.312 15.7125 14.6401 14.6228 15.5745 13.2247C 16.509 11.8267 17.0077 10.183 17.0077 8.50153C 17.0077 6.24678 16.1117 4.08439 14.517 2.49004C 12.9222 0.895692 10.7592 -4.01309e-06 8.50384 -4.01309e-06ZM 8.50384 13.7353C 7.46322 13.7353 6.44596 13.4268 5.58072 12.8488C 4.71548 12.2708 4.0411 11.4493 3.64287 10.4882C 3.24465 9.52703 3.14048 8.46941 3.3435 7.44906C 3.54651 6.42871 4.04759 5.49146 4.78342 4.75583C 5.51925 4.0202 6.45675 3.51924 7.47738 3.31628C 8.498 3.11332 9.55591 3.21747 10.5173 3.61559C 11.4787 4.01371 12.3004 4.6879 12.8786 5.55291C 13.4567 6.41792 13.7653 7.43491 13.7653 8.47525C 13.7653 9.8703 13.211 11.2082 12.2243 12.1947C 11.2375 13.1811 9.89927 13.7353 8.50384 13.7353Z" transform="translate(114.61 376.819) scale(-2 2)" fill="#38D39F"/>
</g>
<g id="Vector_3" opacity="0.1">
<path d="M 8.50384 -4.01309e-06C 6.82194 -4.01309e-06 5.17781 0.498609 3.77936 1.43277C 2.38091 2.36693 1.29097 3.69468 0.647335 5.24814C 0.00369943 6.80159 -0.164737 8.51097 0.163386 10.1601C 0.491508 11.8092 1.30144 13.3241 2.49073 14.513C 3.68001 15.702 5.19524 16.5117 6.84482 16.8397C 8.49441 17.1678 10.2043 16.9994 11.7581 16.3559C 13.312 15.7125 14.6401 14.6228 15.5745 13.2247C 16.509 11.8267 17.0077 10.183 17.0077 8.50153C 17.0077 6.24678 16.1117 4.08439 14.517 2.49004C 12.9222 0.895692 10.7592 -4.01309e-06 8.50384 -4.01309e-06ZM 8.50384 13.7353C 7.46322 13.7353 6.44596 13.4268 5.58072 12.8488C 4.71548 12.2708 4.0411 11.4493 3.64287 10.4882C 3.24465 9.52703 3.14048 8.46941 3.3435 7.44906C 3.54651 6.42871 4.04759 5.49146 4.78342 4.75583C 5.51925 4.0202 6.45675 3.51924 7.47738 3.31628C 8.498 3.11332 9.55591 3.21747 10.5173 3.61559C 11.4787 4.01371 12.3004 4.6879 12.8786 5.55291C 13.4567 6.41792 13.7653 7.43491 13.7653 8.47525C 13.7653 9.8703 13.211 11.2082 12.2243 12.1947C 11.2375 13.1811 9.89927 13.7353 8.50384 13.7353Z" transform="translate(114.61 376.819) scale(-2 2)" fill="black"/>
</g>
<g id="Vector_4">
<path d="M 1.76624e-05 -1.60524e-06L 32.7132 -1.60524e-06L 32.7132 30.2452C 32.7132 31.9455 32.0376 33.576 30.835 34.7783C 29.6324 35.9805 28.0014 36.6559 26.3007 36.6559L 6.41243 36.6559C 4.71175 36.6559 3.08069 35.9805 1.87813 34.7783C 0.675571 33.576 1.76624e-05 31.9455 1.76624e-05 30.2452L 1.76624e-05 -1.60524e-06Z" transform="translate(163.082 363.734) scale(-2 2)" fill="#38D39F"/>
</g>
<g id="Vector_5" opacity="0.1">
<path d="M 6.37952 8.02619e-06L 6.37952 30.2452C 6.37952 31.0828 6.21453 31.9121 5.89393 32.6859C 5.57333 33.4597 5.1034 34.1628 4.511 34.755C 3.91861 35.3473 3.21533 35.817 2.44133 36.1376C 1.66734 36.4581 0.837763 36.623 -8.02836e-06 36.623L 3.28841 36.623C 4.98036 36.623 6.60303 35.9511 7.79942 34.755C 8.99581 33.559 9.66794 31.9367 9.66794 30.2452L 9.66794 8.02619e-06L 6.37952 8.02619e-06Z" transform="translate(122.2 363.734) scale(-2 2)" fill="black"/>
</g>
<g id="Vector_6">
<path d="M 1.56913 0.861646C 1.28862 0.870407 1.01351 0.940947 0.763408 1.06824C 0.513302 1.19553 0.294349 1.37644 0.122224 1.59805C -0.30527 2.3739 0.470786 3.25497 1.18108 3.78755C 2.49645 4.77381 3.87101 5.76007 4.76546 7.12111C 5.65991 8.48214 5.93613 10.4086 4.96276 11.7236C 3.69343 13.4463 0.654937 13.8211 0.35898 15.9382C 0.168252 17.2993 1.34551 18.4631 2.54249 19.1469C 5.48891 20.8367 9.29032 21.2838 11.4212 23.9269C 12.3025 22.1122 14.2821 21.0602 16.2486 20.6394C 18.2151 20.2186 20.2605 20.2252 22.2599 19.9227C 22.5893 19.9167 22.9125 19.8325 23.203 19.677C 23.4934 19.5216 23.7427 19.2993 23.9304 19.0285C 24.4894 17.8976 22.8978 16.5366 23.4503 15.4057C 23.8712 14.5378 25.0945 14.6101 25.9889 14.2616C 27.449 13.6962 28.0474 11.8223 27.6331 10.3166C 27.2188 8.81089 26.0481 7.62738 24.8182 6.66085C 21.5298 4.03083 17.5179 2.52514 13.4863 1.40081C 11.6119 0.887951 9.40873 0.0857978 7.46199 0.0068972C 5.51525 -0.0720034 3.45011 0.546043 1.56913 0.861646Z" transform="translate(153.355 313.251) scale(-2 2)" fill="#EEEEEE"/>
</g>
<g id="Vector_7">
<path d="M 68.399 -7.22357e-06L -1.60567e-06 213.032" stroke-width="8" stroke-miterlimit="10" transform="translate(746.157 452.445) scale(-2 2)" stroke="#E0E0E0"/>
</g>
<g id="Group_2" opacity="0.7">
<g id="Vector_8" opacity="0.7">
<path d="M 218.653 463.247C 210.241 463.733 202.744 470.782 202.744 470.782L 199.12 461.794L 198.824 461.892C 200.593 454.147 236.621 294.413 200.554 280.644C 172.846 270.065 143.454 256.974 120.422 257.461L 120.422 219.707L 152.707 219.707L 152.707 218.392L 178.265 218.392C 183.165 214.894 176.042 212.474 168.091 210.982C 168.416 210.611 168.702 210.207 168.946 209.778L 209.88 136.355C 209.88 136.355 219.298 120.89 213.24 113.493C 207.183 106.096 198.443 132.324 198.443 132.324L 164.815 180.736C 164.815 180.736 130.839 145.356 109.281 127.768C 106.885 125.393 104.182 123.35 101.244 121.692C 97.2976 119.03 94.3183 117.642 92.8451 118.188L 92.8056 118.188C 89.5328 117.281 86.1524 116.821 82.7562 116.82L 80.0663 116.82L 80.0663 111.304C 86.0933 109.314 91.6072 106.02 96.2147 101.656C 100.822 97.2917 104.41 91.9651 106.722 86.0557C 110.517 79.7729 112.834 72.7105 113.499 65.4015C 114.165 58.0926 113.161 50.728 110.563 43.8636C 110.964 43.8152 111.35 43.6806 111.694 43.4691C 112.911 42.6867 113.01 40.9706 112.918 39.5241C 112.476 34.6794 110.86 30.0151 108.211 25.9345C 105.562 21.8539 101.958 18.4798 97.7119 16.1037C 94.3051 14.243 90.3985 12.9543 87.8862 9.99552C 85.729 7.45098 84.8213 3.89387 82.2038 1.81616C 79.0995 -0.649488 74.6141 -0.228685 70.8061 0.875923C 66.5667 2.10282 62.5504 3.99837 58.9087 6.49102C 54.7916 9.31172 51.0691 12.9346 46.3272 14.4994C 42.9598 15.6106 39.3031 15.5843 35.9095 16.6297C 33.3063 17.4535 30.9321 18.8751 28.9769 20.7806C 27.0218 22.6862 25.5399 25.0228 24.65 27.6035C 23.7915 30.3662 23.4656 33.2668 23.6897 36.1511C 21.6263 39.5974 20.0023 43.2884 18.8558 47.138L 18.0929 47.5522L 18.8295 47.2235C 16.2568 55.9048 16.1711 65.1334 18.5823 73.861C 20.9936 82.5885 25.8049 90.465 32.4698 96.5955C 37.7365 103.45 44.9432 108.563 53.1539 111.271L 53.1539 117.945C 47.296 119.208 41.7074 121.496 36.6461 124.704L 36.6461 124.704C 36.6461 124.704 36.2186 124.967 35.482 125.467L 35.2584 125.618C 30.2797 128.997 13.6009 141.332 14.1665 154.666C 14.1665 155.179 14.1665 155.694 14.1665 156.212C 13.256 160.064 12.7947 164.009 12.7919 167.968L 12.7919 264.772C 12.7747 275.463 16.3639 285.848 22.9794 294.248C 8.94449 297.391 -1.60567e-06 302.138 -1.60567e-06 307.471C 0.0673328 307.906 0.0673328 308.35 -1.60567e-06 308.786C -1.60567e-06 318.254 28.2804 325.933 63.2231 325.933C 67.4454 325.933 71.5691 325.822 75.5612 325.605L 115.022 357.533L 51.8188 459.104C 51.8188 459.104 30.9703 475.24 47.1098 480.625C 63.2494 486.01 96.2124 490.04 96.2124 490.04C 96.2124 490.04 101.592 480.625 94.1933 476.594C 86.7944 472.564 76.7056 474.576 76.7056 474.576L 78.0209 466.508C 78.0209 466.508 187.657 372.366 164.789 340.096C 160.415 333.922 156.042 327.551 151.635 321.278L 168.893 322.85L 172.839 470.631L 173.332 470.473C 172.346 473.379 165.374 495.287 180.83 491.579C 197.377 487.634 227.479 473.609 227.479 473.609C 227.479 473.609 227.065 462.76 218.653 463.247ZM 152.707 208.963L 120.422 199.594L 120.422 171.978L 155.509 209.187C 153.786 209.049 152.707 208.963 152.707 208.963Z" transform="translate(940.673 0) scale(-2 2)" fill="url(#paint1_linear)"/>
</g>
</g>
<g id="Vector_9">
<path d="M 47.3532 94.6807C 73.5056 94.6807 94.7063 73.4857 94.7063 47.3404C 94.7063 21.195 73.5056 0 47.3532 0C 21.2007 0 0 21.195 0 47.3404C 0 73.4857 21.2007 94.6807 47.3532 94.6807Z" transform="translate(902.686 35.5869) scale(-2 2)" fill="black"/>
</g>
<g id="Vector_10">
<path d="M 28.3155 52.7081L 64.4552 91.0604C 65.2156 91.8687 66.156 92.4862 67.2 92.8629C 68.2439 93.2396 69.362 93.3648 70.4635 93.2284C 71.5649 93.0919 72.6187 92.6977 73.5391 92.0776C 74.4595 91.4576 75.2207 90.6293 75.7608 89.6599L 115.787 17.8669L 104.607 13.9219L 71.7226 61.2623C 71.7226 61.2623 9.98592 -3.06802 1.35054 0.114301C -7.28484 3.29663 28.3155 52.7081 28.3155 52.7081Z" transform="translate(756.75 241.828) scale(-2 2)" fill="#38D39F"/>
<path d="M 28.3155 52.7081L 64.4552 91.0604C 65.2156 91.8687 66.156 92.4862 67.2 92.8629C 68.2439 93.2396 69.362 93.3648 70.4635 93.2284C 71.5649 93.0919 72.6187 92.6977 73.5391 92.0776C 74.4595 91.4576 75.2207 90.6293 75.7608 89.6599L 115.787 17.8669L 104.607 13.9219L 71.7226 61.2623C 71.7226 61.2623 9.98592 -3.06802 1.35054 0.114301C -7.28484 3.29663 28.3155 52.7081 28.3155 52.7081Z" transform="translate(756.75 241.828) scale(-2 2)" fill="url(#paint2_linear)"/>
</g>
<g id="Vector_11">
<path d="M 0.104619 30.403L 64.4523 91.551L 135.482 91.551L 135.482 82.346L 74.3176 64.5933L 21.9989 -5.61833e-06C 21.9989 -5.61833e-06 -1.7632 14.6558 0.104619 30.403Z" transform="translate(907.946 254.931) scale(-2 2)" fill="#31C493"/>
<path d="M 0.104619 30.403L 64.4523 91.551L 135.482 91.551L 135.482 82.346L 74.3176 64.5933L 21.9989 -5.61833e-06C 21.9989 -5.61833e-06 -1.7632 14.6558 0.104619 30.403Z" transform="translate(907.946 254.931) scale(-2 2)" fill="url(#paint3_linear)"/>
</g>
<g id="Vector_12">
<path d="M 53.2723 -7.22357e-06L -1.60567e-06 138.076" stroke-width="5" stroke-miterlimit="10" transform="translate(944.777 612.877) scale(-2 2)" stroke="#BDBDBD"/>
</g>
<g id="Vector_13">
<path d="M -1.60567e-06 -7.22357e-06L 53.2723 138.076" stroke-width="5" stroke-miterlimit="10" transform="translate(785.618 612.877) scale(-2 2)" stroke="#BDBDBD"/>
</g>
<g id="Vector_14">
<path d="M 61.8222 33.5328C 95.9656 33.5328 123.644 26.0262 123.644 16.7664C 123.644 7.50656 95.9656 -7.22357e-06 61.8222 -7.22357e-06C 27.6787 -7.22357e-06 0 7.50656 0 16.7664C 0 26.0262 27.6787 33.5328 61.8222 33.5328Z" transform="translate(935.57 581.316) scale(-2 2)" fill="#B84733"/>
</g>
<g id="Vector_15">
<path d="M 61.8222 33.5328C 95.9656 33.5328 123.644 26.0262 123.644 16.7664C 123.644 7.50656 95.9656 -7.22357e-06 61.8222 -7.22357e-06C 27.6787 -7.22357e-06 0 7.50656 0 16.7664C 0 26.0262 27.6787 33.5328 61.8222 33.5328Z" transform="translate(935.57 578.687) scale(-2 2)" fill="#F55F44"/>
</g>
<g id="Vector_16">
<path d="M 0 1.60524e-05L 58.3299 17.9696" stroke-width="5" stroke-miterlimit="10" transform="translate(863.961 673.538) scale(-2 2)" stroke="#BDBDBD"/>
</g>
<g id="Vector_17">
<path d="M 58.3299 1.60524e-05L -1.20425e-06 17.9696" stroke-width="5" stroke-miterlimit="10" transform="translate(876.562 673.538) scale(-2 2)" stroke="#BDBDBD"/>
</g>
<g id="Vector_18">
<path d="M 50.0431 0L 68.399 0C 78.167 0 87.5349 3.87927 94.4419 10.7844C 101.349 17.6896 105.229 27.0549 105.229 36.8203L 105.229 134.131L 1.23185e-07 134.131L 1.23185e-07 50.0427C -0.00172753 43.4716 1.2914 36.9646 3.80553 30.8932C 6.31966 24.8218 10.0055 19.305 14.6526 14.658C 19.2997 10.0109 24.817 6.32457 30.8894 3.80953C 36.9618 1.29449 43.4702 -2.26993e-07 50.0431 0L 50.0431 0Z" transform="translate(910.578 239.388) scale(-2 2)" fill="url(#paint4_linear)"/>
</g>
<g id="Vector_19">
<path d="M -1.60567e-06 0L 105.229 0L 105.229 57.2029L 46.6955 57.2029C 34.3111 57.2029 22.4339 52.2846 13.6768 43.5299C 4.91969 34.7751 -1.60567e-06 22.9011 -1.60567e-06 10.5201L -1.60567e-06 0Z" transform="translate(910.578 507.649) scale(-2 2)" fill="#39447A"/>
</g>
<g id="Vector_20" opacity="0.05">
<path d="M 0.104619 30.403L 64.4523 91.551L 135.482 91.551L 135.482 82.346L 74.3176 64.5933L 21.9989 -5.61833e-06C 21.9989 -5.61833e-06 -1.7632 14.6558 0.104619 30.403Z" transform="translate(907.946 257.561) scale(-2 2)" fill="black"/>
</g>
<g id="Vector_21">
<path d="M 0.104619 30.403L 64.4523 91.551L 135.482 91.551L 135.482 82.346L 74.3176 64.5933L 21.9989 -5.61833e-06C 21.9989 -5.61833e-06 -1.7632 14.6558 0.104619 30.403Z" transform="translate(907.946 254.931) scale(-2 2)" fill="#31C493"/>
<path d="M 0.104619 30.403L 64.4523 91.551L 135.482 91.551L 135.482 82.346L 74.3176 64.5933L 21.9989 -5.61833e-06C 21.9989 -5.61833e-06 -1.7632 14.6558 0.104619 30.403Z" transform="translate(907.946 254.931) scale(-2 2)" fill="url(#paint5_linear)"/>
</g>
<g id="Vector_22">
<path d="M 1.60567e-06 2.40786e-06C 1.60567e-06 2.40786e-06 34.1995 2.63002 24.992 9.20507L 1.60567e-06 9.20507L 1.60567e-06 2.40786e-06Z" transform="translate(636.981 419.57) scale(-2 2)" fill="#FDA57D"/>
</g>
<g id="Vector_23">
<path d="M 1.60567e-06 19.6958C 1.60567e-06 19.6958 8.54988 -5.94693 14.469 1.28563C 20.3882 8.51818 11.1806 23.6408 11.1806 23.6408L 1.60567e-06 19.6958Z" transform="translate(547.537 230.268) scale(-2 2)" fill="#FDA57D"/>
</g>
<g id="Vector_24" opacity="0.05">
<path d="M -1.60567e-06 -7.22357e-06L -1.60567e-06 3.06397L 105.229 3.28752L 105.229 -7.22357e-06L -1.60567e-06 -7.22357e-06Z" transform="translate(910.578 507.676) scale(-2 2)" fill="black"/>
</g>
<g id="Vector_25">
<path d="M 8.06765 57.5257L 78.8343 63.9758L 82.6883 208.456L 108.029 200.211C 108.029 200.211 145.931 36.4921 109.791 22.6845C 73.6518 8.87686 34.5854 -9.29001 11.264 5.52358C -12.0574 20.3372 8.06765 57.5257 8.06765 57.5257Z" transform="translate(763.002 514.315) scale(-2 2)" fill="#39447A"/>
</g>
<g id="Vector_26" opacity="0.1">
<path d="M 1.60567e-06 2.40786e-06C 1.60567e-06 2.40786e-06 38.8033 19.7251 44.0648 42.0803Z" transform="translate(738.265 540.551) scale(-2 2)" fill="black"/>
</g>
<g id="Vector_27">
<path d="M 6.57683 41.4304L 61.8222 86.1408L 1.60567e-06 185.424L 25.6496 192.657C 25.6496 192.657 132.852 100.606 110.491 69.0457C 88.1295 37.4854 65.7683 0.665133 38.1456 0.00762806C 10.5229 -0.649877 6.57683 41.4304 6.57683 41.4304Z" transform="translate(834.287 537.906) scale(-2 2)" fill="#39447A"/>
</g>
<g id="Vector_28" opacity="0.05">
<path d="M -1.60567e-06 2.80917e-06L 13.8113 23.6702L 17.0998 17.0951L -1.60567e-06 2.80917e-06Z" transform="translate(647.504 330.149) scale(-2 2)" fill="black"/>
</g>
<g id="Vector_29">
<path d="M 10.5966 -1.76576e-05C 10.5966 -1.76576e-05 -9.79161 15.7801 5.99278 21.0401C 21.7772 26.3002 54.0036 30.2452 54.0036 30.2452C 54.0036 30.2452 59.2651 21.0401 52.0306 17.0951C 44.7961 13.1501 34.9308 15.1226 34.9308 15.1226L 36.2462 7.23254L 10.5966 -1.76576e-05Z" transform="translate(855.479 908.754) scale(-2 2)" fill="#333333"/>
</g>
<g id="Vector_30">
<path d="M 2.47141 8.17279C 2.47141 8.17279 -6.48624 33.0002 9.70592 29.1209C 25.8981 25.2416 55.3228 11.5458 55.3228 11.5458C 55.3228 11.5458 54.9216 0.953381 46.694 1.42678C 38.4664 1.90019 31.1398 8.79085 31.1398 8.79085L 27.5949 9.63142e-06L 2.47141 8.17279Z" transform="translate(601.385 913.987) scale(-2 2)" fill="#333333"/>
</g>
<g id="Vector_31">
<path d="M 26.3073 13.1501C 26.3073 5.8875 20.4182 2.80917e-06 13.1537 2.80917e-06C 5.88909 2.80917e-06 0 5.8875 0 13.1501L 0 26.3002C 0 33.5628 5.88909 39.4503 13.1537 39.4503C 20.4182 39.4503 26.3073 33.5628 26.3073 26.3002L 26.3073 13.1501Z" transform="translate(831.655 193.389) scale(-2 2)" fill="#FDA57D"/>
</g>
<g id="Vector_32" opacity="0.05">
<path d="M 13.1537 2.40786e-06C 9.66509 2.40786e-06 6.3194 1.38546 3.85261 3.85158C 1.38582 6.3177 1.60567e-06 9.66248 1.60567e-06 13.1501L 1.60567e-06 17.6211C 8.54388 20.4311 17.7634 20.4311 26.3073 17.6211L 26.3073 13.1501C 26.3073 9.66248 24.9215 6.3177 22.4547 3.85158C 19.9879 1.38546 16.6422 2.40786e-06 13.1537 2.40786e-06L 13.1537 2.40786e-06Z" transform="translate(831.655 196.019) scale(-2 2)" fill="black"/>
</g>
<g id="Vector_33">
<path d="M 42.0917 84.1607C 65.3383 84.1607 84.1834 65.3207 84.1834 42.0803C 84.1834 18.84 65.3383 0 42.0917 0C 18.8451 0 0 18.84 0 42.0803C 0 65.3207 18.8451 84.1607 42.0917 84.1607Z" transform="translate(889.532 64.5176) scale(-2 2)" fill="#FDA57D"/>
</g>
<g id="Vector_34" opacity="0.05">
<path d="M 2.63073 46.742C 2.63073 46.742 13.1537 49.451 19.0728 37.4975C 24.9919 25.5441 29.5957 19.0216 53.93 26.0832C 78.2643 33.1448 83.1574 34.0127 84.3281 27.3325C 85.1305 22.7694 76.4754 11.6773 70.9114 5.11539C 68.2017 1.91334 63.7755 2.40786e-06 59.0731 2.40786e-06L 31.5688 2.40786e-06L 15.1267 7.60734L 2.63073 18.4759L 1.60567e-06 33.1514L 2.63073 46.742Z" transform="translate(894.793 51.3672) scale(-2 2)" fill="black"/>
</g>
<g id="Vector_35">
<path d="M 2.63073 46.742C 2.63073 46.742 13.1537 49.451 19.0728 37.4975C 24.9919 25.5441 29.5957 19.0216 53.93 26.0832C 78.2643 33.1448 83.1574 34.0127 84.3281 27.3325C 85.1305 22.7694 76.4754 11.6773 70.9114 5.11539C 68.2017 1.91334 63.7755 2.40786e-06 59.0731 2.40786e-06L 31.5688 2.40786e-06L 15.1267 7.60734L 2.63073 18.4759L 1.60567e-06 33.1514L 2.63073 46.742Z" transform="translate(894.793 48.7373) scale(-2 2)" fill="black"/>
</g>
<g id="Vector_36">
<path d="M 4.27494 17.0951C 6.63592 17.0951 8.54988 13.2683 8.54988 8.54756C 8.54988 3.82687 6.63592 -2.2072e-06 4.27494 -2.2072e-06C 1.91395 -2.2072e-06 0 3.82687 0 8.54756C 0 13.2683 1.91395 17.0951 4.27494 17.0951Z" transform="translate(889.532 125.008) scale(-2 2)" fill="#FDA57D"/>
</g>
<g id="Vector_37">
<path d="M 6.54395 43.5741C 5.57058 38.0708 4.61035 32.2913 6.38609 26.9918C 7.25582 24.4681 8.70462 22.183 10.6165 20.3197C 12.5283 18.4563 14.85 17.0664 17.3957 16.2613C 20.6841 15.2422 24.2882 15.2619 27.5832 14.177C 32.2199 12.6516 35.8569 9.10768 39.8885 6.34616C 43.4497 3.90884 47.3772 2.05547 51.5229 0.855992C 55.2454 -0.222317 59.6321 -0.636544 62.6706 1.7765C 65.2224 3.80819 66.1103 7.2864 68.2214 9.77177C 70.6812 12.6648 74.4957 13.9206 77.8302 15.7419C 81.984 18.0686 85.5078 21.3725 88.0966 25.3675C 90.6854 29.3625 92.2611 33.9282 92.6873 38.6691C 92.7991 40.0828 92.6872 41.7594 91.4903 42.5221C 90.7502 42.8998 89.9157 43.0529 89.0897 42.9626C 72.2662 42.7193 55.4229 42.4826 38.6718 40.9375C 33.4629 40.4575 28.2475 39.8526 23.0189 40.0499C 14.94 40.3701 7.05176 42.5984 -2.40851e-06 46.5526" transform="translate(900.186 10.9678) scale(-2 2)" fill="black"/>
</g>
<g id="Group_3" opacity="0.7">
<g id="Vector_38" opacity="0.7">
<path d="M 114.418 74.9078C 115.503 70.5294 115.237 65.9255 113.656 61.701C 112.075 57.4765 109.252 53.829 105.559 51.2376C 103.586 49.9226 101.429 48.9166 99.6402 47.3977C 96.6412 44.8729 94.9246 41.1449 93.6881 37.4168C 90.7154 28.4879 89.775 18.4741 84.5595 10.4065C 79.8111 3.06215 70.5706 0.912114 62.3693 0.182283C 59.3834 -0.0872939 56.2463 -0.225364 53.5169 1.01075C 48.946 3.07531 46.7691 8.47343 46.5652 13.5033C 46.3613 18.5333 47.6635 23.458 47.9923 28.455C 48.3212 33.452 47.4267 38.9751 43.7306 42.3547C 40.0344 45.7343 34.7532 46.1485 29.8535 46.8257C 23.4387 47.715 17.136 49.2798 11.0503 51.494C 5.94011 53.3547 0.251147 56.708 0.00780451 62.139C -0.1895 66.5771 3.39487 70.1211 6.0848 73.6519C 11.1161 80.227 13.6284 88.9652 11.925 97.0854C 10.1887 105.35 4.3814 112.445 3.32253 120.828C 3.05288 122.958 3.1318 125.22 4.16437 127.101C 4.98423 128.424 6.06503 129.568 7.34097 130.46C 10.4979 132.9 14.023 134.859 17.0089 137.502C 23.2372 143.019 26.6111 151.021 29.2089 158.924C 29.4589 159.686 29.6825 160.456 29.9192 161.218L 23.7962 161.218C 17.796 161.236 12.0464 163.626 7.80362 167.868C 3.5608 172.11 1.16953 177.858 1.15218 183.856L 1.15218 183.856C 1.16953 189.855 3.5608 195.603 7.80362 199.845C 12.0464 204.086 17.796 206.477 23.7962 206.494L 84.9607 206.494C 90.9609 206.477 96.7105 204.086 100.953 199.845C 105.196 195.603 107.587 189.855 107.605 183.856L 107.605 183.856C 107.598 177.841 105.203 172.074 100.946 167.822C 96.6895 163.57 90.9188 161.181 84.9015 161.179L 68.1569 161.179C 72.103 155.873 76.2596 150.889 82.376 148.844C 88.4925 146.799 95.8914 148.003 100.692 143.735C 103.034 141.658 104.277 138.581 104.849 135.503C 105.863 129.93 104.915 124.177 102.166 119.224C 100.239 115.785 97.4238 112.649 96.8121 108.769C 96.2926 105.442 97.4698 102.069 99.1206 99.1171C 103.744 90.7076 111.926 84.1786 114.418 74.9078Z" transform="translate(1200 531.757) scale(-2 2)" fill="url(#paint6_linear)"/>
</g>
</g>
<g id="Vector_39">
<path d="M 59.4091 0.173392C 56.5679 -0.0830353 53.582 -0.214548 50.9776 0.962386C 46.6303 2.9349 44.552 8.07002 44.3547 12.8369C 44.1574 17.6038 45.4004 22.3116 45.7095 27.0785C 46.0186 31.8454 45.1702 37.0857 41.6516 40.3141C 38.133 43.5424 33.1018 43.9238 28.4388 44.5681C 22.3292 45.4143 16.3262 46.9042 10.5301 49.0129C 5.66323 50.7815 0.243927 53.9836 0.00716131 59.1516C -0.17699 63.3794 3.22981 66.7524 5.79477 70.1122C 10.5893 76.4045 12.9767 84.6957 11.3522 92.4279C 9.69483 100.318 4.16372 107.057 3.16404 115.04C 2.90754 117.065 2.97989 119.221 3.96641 121.01C 4.74687 122.271 5.77624 123.361 6.99175 124.212C 9.99736 126.533 13.3515 128.4 16.1993 130.918C 22.1185 136.178 25.3411 143.792 27.814 151.301C 30.2465 158.705 32.152 166.272 33.5161 173.945C 38.6263 170.658 45.2294 170.71 50.6816 168.028C 62.2897 162.34 66.1964 145.85 78.4556 141.728C 84.2563 139.788 91.3264 140.926 95.8973 136.862C 98.1269 134.89 99.3107 131.957 99.8434 129.025C 100.808 123.73 99.9137 118.265 97.3113 113.554C 95.4764 110.266 92.7931 107.307 92.2077 103.599C 91.7079 100.43 92.8654 97.2212 94.4044 94.3939C 98.8108 86.3855 106.604 80.172 108.979 71.3417C 110.017 67.1685 109.767 62.7787 108.261 58.7505C 106.754 54.7224 104.063 51.2449 100.541 48.7762C 98.6793 47.5203 96.5945 46.5669 94.8845 45.1204C 92.0236 42.714 90.3991 39.1634 89.2153 35.6195C 86.3807 27.1179 85.4862 17.5775 80.5207 9.89788C 76.0156 2.91517 67.2158 0.863772 59.4091 0.173392Z" transform="translate(1194.57 541.572) scale(-2 2)" fill="#4DB6AC"/>
</g>
<g id="Vector_40" opacity="0.6">
<path d="M 17.2576 9.63142e-06C 17.2576 9.63142e-06 28.0436 144.395 0 169.216" stroke-miterlimit="10" transform="translate(1110.43 542.497) scale(-2 2)" stroke="#535461"/>
</g>
<g id="Vector_41">
<path d="M 79.7835 1.28419e-05L 21.5588 1.28419e-05C 9.65223 1.28419e-05 0 9.64961 0 21.553L 0 21.5596C 0 33.463 9.65223 43.1126 21.5588 43.1126L 79.7835 43.1126C 91.6901 43.1126 101.342 33.463 101.342 21.5596L 101.342 21.553C 101.342 9.64961 91.6901 1.28419e-05 79.7835 1.28419e-05Z" transform="translate(1192.34 848.592) scale(-2 2)" fill="#38D39F"/>
</g>
<g id="Vector_42" opacity="0.6">
<path d="M -2.40851e-06 0.183753C -2.40851e-06 0.183753 27.5635 -3.03145 61.2171 17.4367" stroke-miterlimit="10" transform="translate(1194.5 654.221) scale(-2 2)" stroke="#535461"/>
</g>
<g id="Vector_43" opacity="0.6">
<path d="M 4.01418e-06 30.1729C 4.01418e-06 30.1729 15.3174 4.84581 48.2016 1.60524e-06" stroke-miterlimit="10" transform="translate(1073.14 663.215) scale(-2 2)" stroke="#535461"/>
</g>
<g id="Vector_44" opacity="0.6">
<path d="M 1.60567e-06 1.92865C 1.60567e-06 1.92865 38.2048 -4.54778 55.7584 6.2353" stroke-miterlimit="10" transform="translate(1189.11 768.254) scale(-2 2)" stroke="#535461"/>
</g>
<g id="Vector_45" opacity="0.6">
<path d="M 2.40851e-06 4.5889C 2.40851e-06 4.5889 20.0001 -4.48465 42.4995 2.88598" stroke-miterlimit="10" transform="translate(1081.94 801.135) scale(-2 2)" stroke="#535461"/>
</g>
<g id="Vector_46">
<path d="M 0.986508 1.97251C 1.24815 1.97251 1.49908 1.8686 1.68409 1.68364C 1.8691 1.49869 1.97303 1.24782 1.97303 0.986249C 1.97303 0.724677 1.8691 0.473833 1.68409 0.288874C 1.49908 0.103914 1.24815 -8.82881e-06 0.986508 -8.82881e-06C 0.724866 -8.82881e-06 0.473974 0.103914 0.288965 0.288874C 0.103955 0.473833 -1.60567e-05 0.724677 -1.60567e-05 0.986249C -1.60567e-05 1.24782 0.103955 1.49869 0.288965 1.68364C 0.473974 1.8686 0.724866 1.97251 0.986508 1.97251L 0.986508 1.97251Z" transform="translate(436.835 536.83) scale(-2 2)" fill="url(#paint7_linear)"/>
</g>
<g id="Vector_47">
<path d="M 4.81701e-06 -7.22357e-06L 68.399 243.336" stroke-width="8" stroke-miterlimit="10" transform="translate(145.351 452.445) scale(-2 2)" stroke="#E0E0E0"/>
</g>
<g id="Vector_48">
<path d="M 369.361 -4.81571e-06L 3.21134e-06 -4.81571e-06L 3.21134e-06 14.3862L 369.361 14.3862L 369.361 -4.81571e-06Z" transform="translate(746.723 438.19) scale(-2 2)" fill="#E0E0E0"/>
</g>
<g id="Vector_49">
<path d="M 56.2319 -7.22357e-06L 4.27494 -7.22357e-06C 1.91395 -7.22357e-06 0 1.91343 0 4.27378C 0 6.63412 1.91395 8.54756 4.27494 8.54756L 56.2319 8.54756C 58.5929 8.54756 60.5068 6.63412 60.5068 4.27378C 60.5068 1.91343 58.5929 -7.22357e-06 56.2319 -7.22357e-06Z" transform="translate(564.636 431.405) scale(-2 2)" fill="#535461"/>
</g>
<g id="Group_4" opacity="0.7">
<g id="Vector_50" opacity="0.7">
<path d="M 131.826 0L 18.5598 0C 8.30953 0 0 8.30727 0 18.5548L 0 85.3968C 0 95.6443 8.30953 103.952 18.5598 103.952L 131.826 103.952C 142.076 103.952 150.386 95.6443 150.386 85.3968L 150.386 18.5548C 150.386 8.30727 142.076 0 131.826 0Z" transform="translate(490.976 240.808) scale(-2 2)" fill="url(#paint8_linear)"/>
</g>
</g>
<g id="Vector_51">
<path d="M 124.808 3.61178e-06L 17.6522 3.61178e-06C 7.90314 3.61178e-06 3.21134e-06 7.90103 3.21134e-06 17.6474L 3.21134e-06 84.3842C 3.21134e-06 94.1306 7.90314 102.032 17.6522 102.032L 124.808 102.032C 134.558 102.032 142.461 94.1306 142.461 84.3842L 142.461 17.6474C 142.461 7.90103 134.558 3.61178e-06 124.808 3.61178e-06Z" transform="translate(485.623 244.634) scale(-2 2)" fill="#3E3F49"/>
</g>
<g id="Vector_52">
<path d="M 124.808 3.61178e-06L 17.6522 3.61178e-06C 7.90314 3.61178e-06 3.21134e-06 7.90103 3.21134e-06 17.6474L 3.21134e-06 84.3842C 3.21134e-06 94.1306 7.90314 102.032 17.6522 102.032L 124.808 102.032C 134.558 102.032 142.461 94.1306 142.461 84.3842L 142.461 17.6474C 142.461 7.90103 134.558 3.61178e-06 124.808 3.61178e-06Z" transform="translate(481.676 244.634) scale(-2 2)" fill="#535461"/>
</g>
<g id="Vector_53">
<path d="M 4.60378 9.20506C 7.14638 9.20506 9.20756 7.14444 9.20756 4.60253C 9.20756 2.06062 7.14638 2.80917e-06 4.60378 2.80917e-06C 2.06118 2.80917e-06 0 2.06062 0 4.60253C 0 7.14444 2.06118 9.20506 4.60378 9.20506Z" transform="translate(335.105 336.067) scale(-2 2)" fill="#E0E0E0"/>
</g>
</g>
</g>
<defs>

<linearGradient id="paint0_linear" x2="1" gradientUnits="userSpaceOnUse" gradientTransform="matrix(0 -40.1144 40.1252 0 2.50906 40.1144)">
<stop stop-color="#808080" stop-opacity="0.25"/>
<stop offset="0.54" stop-color="#808080" stop-opacity="0.12"/>
<stop offset="1" stop-color="#808080" stop-opacity="0.1"/>
</linearGradient>
<linearGradient id="paint1_linear" x2="1" gradientUnits="userSpaceOnUse" gradientTransform="matrix(0 -368124 170205 0 32509.1 405462)">
<stop stop-color="#808080" stop-opacity="0.25"/>
<stop offset="0.54" stop-color="#808080" stop-opacity="0.12"/>
<stop offset="1" stop-color="#808080" stop-opacity="0.1"/>
</linearGradient>
<linearGradient id="paint2_linear" x2="1" gradientUnits="userSpaceOnUse" gradientTransform="matrix(0 93.2819 -115.787 0 115.787 0)">
<stop stop-color="#1E9870"/>
<stop offset="1" stop-color="#35CE9B"/>
</linearGradient>
<linearGradient id="paint3_linear" x2="1" gradientUnits="userSpaceOnUse" gradientTransform="matrix(0 91.551 -135.482 0 135.482 0)">
<stop stop-color="#38D39F"/>
<stop offset="1" stop-color="#1C916A" stop-opacity="0.91"/>
</linearGradient>
<linearGradient id="paint4_linear" x2="1" gradientUnits="userSpaceOnUse" gradientTransform="matrix(0 134.131 -105.229 0 105.229 0)">
<stop stop-color="#2EBD8D"/>
<stop offset="1" stop-color="#2BCC96"/>
</linearGradient>
<linearGradient id="paint5_linear" x2="1" gradientUnits="userSpaceOnUse" gradientTransform="matrix(0 91.551 -135.482 0 135.482 0)">
<stop stop-color="#38D39F"/>
<stop offset="1" stop-color="#1C916A" stop-opacity="0.91"/>
</linearGradient>
<linearGradient id="paint6_linear" x2="1" gradientUnits="userSpaceOnUse" gradientTransform="translate(16902 113506) scale(20144.8 36148.9)">
<stop stop-color="#808080" stop-opacity="0.25"/>
<stop offset="0.54" stop-color="#808080" stop-opacity="0.12"/>
<stop offset="1" stop-color="#808080" stop-opacity="0.1"/>
</linearGradient>
<linearGradient id="paint7_linear" x2="1" gradientUnits="userSpaceOnUse" gradientTransform="matrix(0 -5.91755 5.91915 0 1434.6 960.773)">
<stop stop-color="#808080" stop-opacity="0.25"/>
<stop offset="0.54" stop-color="#808080" stop-opacity="0.12"/>
<stop offset="1" stop-color="#808080" stop-opacity="0.1"/>
</linearGradient>
<linearGradient id="paint8_linear" x2="1" gradientUnits="userSpaceOnUse" gradientTransform="matrix(0 -16434.7 23776 0 86372.6 35466.2)">
<stop stop-color="#808080" stop-opacity="0.25"/>
<stop offset="0.54" stop-color="#808080" stop-opacity="0.12"/>
<stop offset="1" stop-color="#808080" stop-opacity="0.1"/>
</linearGradient>

</defs>
</svg>

